<svg xmlns="http://www.w3.org/2000/svg" xmlns:xlink="http://www.w3.org/1999/xlink" width="1600" height="358" viewBox="0 0 1600 358"><defs><style>.a{fill:#2c67d3;}.b{fill:#f5f8fb;}.c{clip-path:url(#a);}.d,.e,.f,.h,.i,.j,.l{fill:none;}.d,.e,.f,.h,.i,.j{stroke:#aecbff;}.d{stroke-width:61px;}.d,.j{opacity:0.1;}.e{stroke-width:64px;opacity:0.05;}.f{stroke-width:50px;opacity:0.22;}.g{opacity:0.44;}.h,.j{stroke-width:70px;}.h{opacity:0.26;}.i{stroke-width:76px;opacity:0.17;}.k{stroke:none;}</style><clipPath id="a"><rect class="a" width="1600" height="358" transform="translate(0 -116)"/></clipPath></defs><g transform="translate(0 -76)"><rect class="b" width="1600" height="356" transform="translate(0 78)"/><g class="c" transform="translate(0 192)"><g transform="translate(-14 -374.5)"><g transform="translate(1099.288 407.5)"><g class="d" transform="translate(88 88)"><circle class="k" cx="184" cy="184" r="184"/><circle class="l" cx="184" cy="184" r="153.5"/></g><g class="e"><circle class="k" cx="272" cy="272" r="272"/><circle class="l" cx="272" cy="272" r="240"/></g><g class="f" transform="translate(175 174)"><circle class="k" cx="97.5" cy="97.5" r="97.5"/><circle class="l" cx="97.5" cy="97.5" r="72.5"/></g></g><g class="g" transform="translate(474 -114)"><g class="h" transform="translate(109.919 109.919)"><circle class="k" cx="229.831" cy="229.831" r="229.831"/><circle class="l" cx="229.831" cy="229.831" r="194.831"/></g><g class="i"><circle class="k" cx="339.75" cy="339.75" r="339.75"/><circle class="l" cx="339.75" cy="339.75" r="301.75"/></g><g class="j" transform="translate(218.589 217.34)"><circle class="k" cx="121.785" cy="121.785" r="121.785"/><circle class="l" cx="121.785" cy="121.785" r="86.785"/></g></g><g transform="translate(-12.432 407.5)"><g class="d" transform="translate(88.432 88)"><circle class="k" cx="184" cy="184" r="184"/><circle class="l" cx="184" cy="184" r="153.5"/></g><g class="e" transform="translate(0.432)"><circle class="k" cx="272" cy="272" r="272"/><circle class="l" cx="272" cy="272" r="240"/></g><g class="f" transform="translate(175.432 174)"><circle class="k" cx="97.5" cy="97.5" r="97.5"/><circle class="l" cx="97.5" cy="97.5" r="72.5"/></g></g></g></g></g></svg>