<svg xmlns="http://www.w3.org/2000/svg" xmlns:xlink="http://www.w3.org/1999/xlink" width="1600" height="235" viewBox="0 0 1600 235"><defs><style>.a{fill:#2c67d3;}.b{opacity:0.33;clip-path:url(#a);}.c,.d,.e,.g,.h,.i,.k{fill:none;}.c,.d,.e,.g,.h,.i{stroke:#aecbff;}.c{stroke-width:61px;}.c,.i{opacity:0.1;}.d{stroke-width:64px;opacity:0.05;}.e{stroke-width:50px;opacity:0.22;}.f{opacity:0.44;}.g,.i{stroke-width:70px;}.g{opacity:0.26;}.h{stroke-width:76px;opacity:0.17;}.j{stroke:none;}</style><clipPath id="a"><rect class="a" width="1600" height="235"/></clipPath></defs><g transform="translate(0 -77)"><rect class="a" width="1600" height="235" transform="translate(0 77)"/><g class="b" transform="translate(0 77)"><g transform="translate(-14 -374.5)"><g transform="translate(1099.288 407.5)"><g class="c" transform="translate(88 88)"><circle class="j" cx="184" cy="184" r="184"/><circle class="k" cx="184" cy="184" r="153.5"/></g><g class="d"><circle class="j" cx="272" cy="272" r="272"/><circle class="k" cx="272" cy="272" r="240"/></g><g class="e" transform="translate(175 174)"><circle class="j" cx="97.5" cy="97.5" r="97.5"/><circle class="k" cx="97.5" cy="97.5" r="72.5"/></g></g><g class="f" transform="translate(474 -114)"><g class="g" transform="translate(109.919 109.919)"><circle class="j" cx="229.831" cy="229.831" r="229.831"/><circle class="k" cx="229.831" cy="229.831" r="194.831"/></g><g class="h"><circle class="j" cx="339.75" cy="339.75" r="339.75"/><circle class="k" cx="339.75" cy="339.75" r="301.75"/></g><g class="i" transform="translate(218.589 217.34)"><circle class="j" cx="121.785" cy="121.785" r="121.785"/><circle class="k" cx="121.785" cy="121.785" r="86.785"/></g></g><g transform="translate(-12.432 407.5)"><g class="c" transform="translate(88.432 88)"><circle class="j" cx="184" cy="184" r="184"/><circle class="k" cx="184" cy="184" r="153.5"/></g><g class="d" transform="translate(0.432)"><circle class="j" cx="272" cy="272" r="272"/><circle class="k" cx="272" cy="272" r="240"/></g><g class="e" transform="translate(175.432 174)"><circle class="j" cx="97.5" cy="97.5" r="97.5"/><circle class="k" cx="97.5" cy="97.5" r="72.5"/></g></g></g></g></g></svg>