<svg xmlns="http://www.w3.org/2000/svg" width="260.198" height="31.44" viewBox="0 0 260.198 31.44"><defs><style>.a{fill:#002e54;}.b{fill:#2c67d3;}.c{fill:#090100;}</style></defs>
    <g transform="translate(-240.307 -2924.295)">
        <g transform="translate(240.307 2924.382)">
            <path class="a" d="M257.608,2933.231c-.615-2.767-3.6-3.952-6.279-3.909a7.322,7.322,0,0,0-5.577,2.328,4.024,4.024,0,0,0-.746,2.854c.22,3.162,3.689,3.558,6.982,3.865,4.216.527,9.441,1.625,10.627,6.543a10.919,10.919,0,0,1,.219,2.019c0,5.929-5.884,9.354-11.417,9.354-4.743,0-10.5-2.811-11.066-8.3l-.044-.834,4.479-.088.044.658v-.176c.307,2.854,3.776,4.347,6.631,4.347,3.293,0,6.894-1.844,6.894-5.006a4.921,4.921,0,0,0-.132-1.054c-.527-2.328-3.689-2.722-6.762-3.03-4.786-.483-10.407-1.537-10.89-7.948v.044a8.312,8.312,0,0,1,1.669-5.84c2.064-2.679,5.752-4.084,9.309-4.084,4.742,0,9.661,2.459,10.451,8.081Z" transform="translate(-240.307 -2924.975)"/>
            <path id="short-logo" class="a" d="M425.626,2949.174V2927.7h4.479v21.517c0,3.382,3.645,5.05,6.894,5.05,3.206,0,6.85-1.712,6.85-5.094V2927.7h4.479v21.517c0,6.236-6.06,9.485-11.329,9.485C431.6,2958.7,425.626,2955.454,425.626,2949.174Z" transform="translate(-401.738 -2927.35)"/>
            <path id="short-logo" class="a" d="M638.2,2927.36c6.631,0,9.968,5.138,9.968,10.275s-3.337,10.231-9.968,10.231h-6.762V2958.1h-4.479V2927.36Zm0,16.115c3.732,0,5.577-2.9,5.577-5.8,0-2.942-1.844-5.841-5.577-5.841h-6.762v11.637Z" transform="translate(-577.119 -2927.053)"/>
            <path id="short-logo" class="a" d="M804.153,2953.961h14.271v4.435h-18.75V2927.7h18.707v4.435H804.153v8.65h13.92v4.479h-13.92Z" transform="translate(-727.572 -2927.35)"/>
            <path id="short-logo" class="a" d="M958.647,2942.509h5.182a5.34,5.34,0,1,0,0-10.67h-6.806V2958.1h-4.391V2927.36h11.2c6.674,0,10.012,4.918,10.012,9.793a9.253,9.253,0,0,1-7.948,9.4l9.7,11.549h-5.753l-11.2-13.481Z" transform="translate(-860.813 -2927.053)"/>
        </g>
        <g transform="translate(353.645 2924.382)">
            <path class="b" d="M1136.883,2933.231c-.615-2.767-3.6-3.952-6.28-3.909a7.322,7.322,0,0,0-5.577,2.328,4.024,4.024,0,0,0-.746,2.854c.219,3.162,3.688,3.558,6.982,3.865,4.216.527,9.441,1.625,10.627,6.543a10.919,10.919,0,0,1,.22,2.019c0,5.929-5.884,9.354-11.417,9.354-4.742,0-10.5-2.811-11.066-8.3l-.044-.834,4.479-.088.044.658v-.176c.307,2.854,3.776,4.347,6.631,4.347,3.293,0,6.894-1.844,6.894-5.006a4.923,4.923,0,0,0-.132-1.054c-.527-2.328-3.689-2.722-6.762-3.03-4.786-.483-10.407-1.537-10.89-7.948v.044a8.313,8.313,0,0,1,1.668-5.84c2.064-2.679,5.753-4.084,9.31-4.084,4.742,0,9.661,2.459,10.451,8.081Z" transform="translate(-1119.582 -2924.975)"/>
        </g>
        <g id="short-logo" transform="translate(374.942 2924.69)">
            <path class="b" d="M1294.111,2958.23v-26.743h-9.31v-4.127h23.01v4.127h-9.266v26.743Z" transform="translate(-1284.801 -2927.36)"/>
        </g>
        <g id="short-logo" transform="translate(398.918 2924.295)">
            <path class="b" d="M1476.822,2942.509H1482a5.34,5.34,0,1,0,0-10.67H1475.2V2958.1h-4.391V2927.36H1482c6.674,0,10.012,4.918,10.012,9.793a9.253,9.253,0,0,1-7.948,9.4l9.7,11.549h-5.753l-11.2-13.481Z" transform="translate(-1470.806 -2926.965)"/><path class="b" d="M1650.045,2953.961h14.271v4.435h-18.75V2927.7h18.707v4.435h-14.228v8.65h13.92v4.479h-13.92Z" transform="translate(-1623.04 -2927.262)"/>
            <path class="b" d="M1794.174,2946.383h-11.022c-1.186,2.81-2.723,6.5-3.689,9.046h-4.786l12.339-31.134h3.25l12.339,31.134h-4.743Zm-9.353-4.172h7.641l-3.776-10.846Z" transform="translate(-1735.508 -2924.295)"/>
            <path class="b" d="M1999.183,2958.1h-4.435V2927.36h3.6l10.144,14.93,10.144-14.93h3.513V2958.1h-4.391V2936.45l-8.036,11.944h-2.5l-8.036-11.944Z" transform="translate(-1927.212 -2926.965)"/>
        </g>
        <g id="short-logo" transform="translate(496.034 2924.921)">
            <path class="c" d="M2226.051,2929.411h-.771v2.075H2225v-2.075h-.771v-.257h1.818Z" transform="translate(-2224.233 -2929.154)"/>
        </g>
        <g id="short-logo" transform="translate(498.097 2924.921)">
            <path class="c" d="M2240.231,2929.154h.412l.791,1.828h.006l.8-1.828h.4v2.332h-.277v-1.957h-.007l-.837,1.957h-.168l-.837-1.957h-.007v1.957h-.277Z" transform="translate(-2240.231 -2929.154)"/>
        </g>
    </g>
</svg>